<mxfile host="app.diagrams.net" modified="2023-07-27T04:52:53.851Z" agent="Mozilla/5.0 (Macintosh; Intel Mac OS X 10_15_7) AppleWebKit/537.36 (KHTML, like Gecko) Chrome/114.0.0.0 Safari/537.36" version="21.6.5" etag="1B0NCf7dPHn5JqQR2lb0" type="github">
  <diagram name="페이지-1" id="8CIZky-aUXyt2zbyR1U5">
    <mxGraphModel>
      <root>
        <mxCell id="0" />
        <mxCell id="1" parent="0" />
      </root>
    </mxGraphModel>
  </diagram>
</mxfile>
